<svg xmlns="http://www.w3.org/2000/svg" viewBox="0 0 552.08 397.19"><defs><style>.cls-1{fill:#546153;}.cls-2{fill:#6e806d;}.cls-3{fill:none;stroke:#3e566c;stroke-linecap:round;stroke-linejoin:round;stroke-width:8px;}.cls-4{fill:#70c9f0;}.cls-5{fill:#98d6f1;}.cls-6{fill:#f47a33;}.cls-7{fill:#f4c734;}.cls-8{fill:#aec5a8;}.cls-9{fill:#fff;}.cls-10{fill:#95a88f;}.cls-11{font-size:79.62px;fill:#0b6570;font-family:TwCenMT-CondensedExtraBold, Tw Cen MT Condensed Extra Bold;}.cls-12{letter-spacing:-0.02em;}</style></defs><title>Ativo 1</title><g id="Camada_2" data-name="Camada 2"><g id="Layer_1" data-name="Layer 1"><path class="cls-1" d="M386.08,283.57a832.45,832.45,0,0,1-220.08,0,38.07,38.07,0,0,1-33-37.75H419.1A38.07,38.07,0,0,1,386.08,283.57Z"/><path class="cls-2" d="M360.67,283.57a493.88,493.88,0,0,1-169.26,0C176.86,281.05,166,264.9,166,245.82H386.08C386.08,264.9,375.22,281.05,360.67,283.57Z"/><path class="cls-3" d="M386.08,283.57a832.45,832.45,0,0,1-220.08,0,38.07,38.07,0,0,1-33-37.75H419.1A38.07,38.07,0,0,1,386.08,283.57Z"/><path class="cls-4" d="M395,199C389.38,118,338.27,54.64,276,54.64S162.7,118,157.1,199Z"/><path class="cls-5" d="M367.47,199C363.17,118,323.88,54.64,276,54.64S188.91,118,184.61,199Z"/><path class="cls-3" d="M395,199C389.38,118,338.27,54.64,276,54.64S162.7,118,157.1,199Z"/><line class="cls-3" x1="276.04" y1="54.64" x2="276.04" y2="38.18"/><path class="cls-6" d="M293.13,21.09A17.08,17.08,0,1,1,281.06,4.75,17.09,17.09,0,0,1,293.13,21.09Z"/><path class="cls-7" d="M283,12.65a17.09,17.09,0,0,1-17.09,17.09,16.94,16.94,0,0,1-5-.75A17.09,17.09,0,0,1,281.06,4.75,16.94,16.94,0,0,1,283,12.65Z"/><circle class="cls-3" cx="276.04" cy="21.09" r="17.09"/><rect class="cls-8" x="174.09" y="262.63" width="18.36" height="36.36" rx="8.44" ry="8.44"/><rect class="cls-3" x="174.09" y="262.63" width="18.36" height="36.36" rx="8.44" ry="8.44"/><rect class="cls-8" x="266.86" y="262.63" width="18.36" height="36.36" rx="8.44" ry="8.44"/><rect class="cls-3" x="266.86" y="262.63" width="18.36" height="36.36" rx="8.44" ry="8.44"/><rect class="cls-8" x="359.63" y="262.63" width="18.36" height="36.36" rx="8.44" ry="8.44"/><rect class="cls-3" x="359.63" y="262.63" width="18.36" height="36.36" rx="8.44" ry="8.44"/><rect class="cls-8" x="174.09" y="186.03" width="18.36" height="36.36" rx="8.44" ry="8.44"/><rect class="cls-3" x="174.09" y="186.03" width="18.36" height="36.36" rx="8.44" ry="8.44"/><rect class="cls-8" x="266.86" y="186.03" width="18.36" height="36.36" rx="8.44" ry="8.44"/><rect class="cls-3" x="266.86" y="186.03" width="18.36" height="36.36" rx="8.44" ry="8.44"/><rect class="cls-8" x="359.63" y="186.03" width="18.36" height="36.36" rx="8.44" ry="8.44"/><rect class="cls-3" x="359.63" y="186.03" width="18.36" height="36.36" rx="8.44" ry="8.44"/><ellipse class="cls-9" cx="291.02" cy="109.08" rx="37.77" ry="17.72"/><path class="cls-10" d="M405.91,245.82H146.17a56.93,56.93,0,0,1-47.75-25.95h0A13.54,13.54,0,0,1,109.78,199H442.3a13.54,13.54,0,0,1,11.36,20.9h0A56.93,56.93,0,0,1,405.91,245.82Z"/><path class="cls-8" d="M384,245.82H168.12c-16,0-31-9.77-39.68-25.95h0c-4.86-9,.51-20.9,9.43-20.9H414.21c8.92,0,14.29,11.9,9.43,20.9h0C414.92,236.05,400,245.82,384,245.82Z"/><path class="cls-3" d="M405.91,245.82H146.17a56.93,56.93,0,0,1-47.75-25.95h0A13.54,13.54,0,0,1,109.78,199H442.3a13.54,13.54,0,0,1,11.36,20.9h0A56.93,56.93,0,0,1,405.91,245.82Z"/><text class="cls-11" transform="translate(0 375.81)">AlienCode<tspan class="cls-12" x="297.17" y="0">s</tspan><tspan x="326.21" y="0">.com.br</tspan></text></g></g></svg>