<?xml version="1.0" standalone="no"?>
<!DOCTYPE svg PUBLIC "-//W3C//DTD SVG 20010904//EN"
 "http://www.w3.org/TR/2001/REC-SVG-20010904/DTD/svg10.dtd">
<svg version="1.0" xmlns="http://www.w3.org/2000/svg"
 width="1000.000000pt" height="1000.000000pt" viewBox="0 0 1000.000000 1000.000000"
 preserveAspectRatio="xMidYMid meet">
<metadata>
Created by potrace 1.11, written by Peter Selinger 2001-2013
</metadata>
<g transform="translate(0.000000,1000.000000) scale(0.100000,-0.100000)"
fill="#000000" stroke="none">
<path d="M4760 8029 c-36 -4 -85 -10 -110 -13 -25 -3 -56 -8 -70 -11 -14 -3
-41 -8 -60 -11 -144 -25 -387 -98 -545 -164 -98 -41 -320 -152 -380 -191 -16
-10 -37 -22 -45 -25 -22 -10 -194 -129 -285 -198 -303 -228 -599 -566 -736
-837 -42 -85 -41 -84 -139 -94 -30 -3 -66 -7 -80 -9 -14 -3 -52 -7 -85 -11
-33 -3 -89 -10 -125 -15 -36 -5 -91 -12 -123 -15 -32 -4 -66 -8 -75 -10 -9 -1
-53 -8 -97 -15 -44 -7 -87 -13 -95 -15 -8 -1 -35 -6 -60 -10 -25 -3 -119 -20
-210 -37 -91 -16 -176 -32 -190 -34 -14 -3 -33 -7 -42 -10 -10 -3 -30 -7 -45
-10 -16 -3 -75 -16 -133 -30 -58 -14 -113 -27 -122 -29 -106 -23 -340 -97
-478 -152 -241 -97 -390 -207 -421 -312 -6 -21 -9 -98 -7 -186 4 -186 9 -198
133 -320 214 -210 669 -425 1310 -619 66 -20 136 -41 155 -46 102 -28 189 -51
220 -60 19 -5 87 -22 150 -36 63 -15 118 -30 121 -33 4 -3 -15 -82 -42 -176
-27 -93 -51 -182 -54 -197 -3 -15 -10 -39 -15 -53 -5 -14 -12 -36 -15 -48 -2
-12 -22 -85 -44 -162 -79 -284 -201 -721 -216 -770 -8 -27 -25 -88 -38 -135
l-23 -85 -52 -2 c-120 -6 -202 -89 -202 -205 0 -174 211 -264 334 -141 38 38
56 75 60 125 5 54 -8 97 -44 146 l-29 41 270 368 c148 202 278 379 289 393 10
14 89 122 176 240 86 118 194 265 238 325 45 61 95 129 111 153 32 46 32 46
145 28 75 -13 212 -32 288 -42 26 -3 58 -7 72 -9 14 -2 54 -6 90 -10 36 -4 72
-8 80 -10 8 -2 49 -7 90 -10 41 -3 91 -7 110 -10 19 -3 71 -8 115 -11 44 -4
94 -8 110 -9 98 -10 259 -20 490 -30 318 -14 282 -11 282 -27 1 -11 34 -225
49 -308 4 -24 21 -128 29 -180 2 -14 13 -83 25 -155 29 -177 29 -175 35 -220
3 -22 10 -62 15 -90 6 -27 12 -66 14 -85 3 -20 7 -47 10 -60 3 -14 8 -47 11
-75 3 -27 8 -57 10 -65 2 -8 6 -33 10 -55 3 -22 10 -65 15 -95 5 -30 12 -73
15 -95 3 -22 10 -65 15 -95 24 -139 25 -134 -12 -148 -81 -29 -145 -116 -153
-209 -18 -222 250 -349 407 -192 124 124 81 343 -80 401 -32 12 -32 13 -27 58
4 25 11 68 16 95 5 28 11 68 14 90 3 22 8 51 10 65 3 14 7 39 9 55 7 42 54
334 71 435 7 47 17 105 20 130 3 25 15 95 25 155 11 61 22 128 24 150 3 22 8
51 11 65 3 14 8 45 11 70 3 25 8 54 10 65 2 11 6 38 10 60 3 22 13 87 22 145
l18 104 49 2 c93 2 390 15 435 19 25 2 95 6 155 10 61 3 124 8 140 10 17 2 66
7 110 10 44 4 94 8 110 10 17 2 60 7 97 10 37 3 77 8 90 10 13 2 52 7 88 10
36 3 76 8 90 10 14 2 66 8 115 14 50 7 97 14 105 16 8 2 42 7 75 11 33 3 69 8
80 10 11 3 38 7 60 10 l40 5 60 -83 c88 -123 310 -426 703 -961 l352 -479 -26
-34 c-110 -144 -21 -335 156 -334 53 1 112 32 150 80 56 70 54 183 -4 248 -43
48 -78 66 -144 71 l-66 6 -12 45 c-7 25 -37 135 -69 245 -81 288 -165 587
-170 606 -2 9 -13 49 -24 90 -24 81 -28 98 -96 339 -26 91 -48 172 -50 180 -2
8 -11 39 -19 68 -11 40 -12 54 -3 57 20 7 130 34 158 38 164 29 858 244 1024
317 11 5 70 30 130 55 431 183 708 381 763 544 7 20 12 95 12 180 0 122 -4
153 -19 188 -58 127 -286 257 -646 370 -60 19 -118 36 -128 38 -10 2 -50 13
-90 24 -79 21 -372 87 -427 96 -19 3 -57 10 -85 15 -110 22 -192 37 -250 45
-22 4 -53 9 -70 12 -16 2 -39 6 -50 8 -11 1 -38 5 -60 8 -22 3 -65 9 -95 13
-30 3 -57 7 -60 9 -3 2 -36 6 -74 10 -38 3 -72 8 -75 9 -3 2 -38 7 -78 11 -40
4 -85 8 -100 10 -15 2 -59 7 -98 10 -38 4 -73 9 -78 12 -4 2 -25 39 -46 81
-190 377 -628 810 -1081 1071 -212 122 -536 259 -697 296 -10 2 -52 13 -93 23
-41 11 -95 23 -120 27 -25 4 -56 9 -70 12 -152 28 -495 39 -640 22z m386 -42
c162 -37 258 -74 377 -144 139 -81 216 -142 352 -278 107 -108 131 -134 216
-245 265 -345 478 -780 589 -1208 17 -62 32 -127 35 -145 3 -18 7 -43 10 -57
2 -14 7 -43 10 -66 l5 -40 -177 -42 c-98 -22 -191 -44 -208 -47 -16 -3 -41 -7
-55 -10 -14 -3 -36 -7 -50 -10 -14 -3 -42 -8 -64 -11 -21 -3 -48 -7 -59 -10
-18 -3 -59 -9 -217 -29 -78 -10 -110 -14 -186 -21 -43 -3 -95 -8 -114 -10
-286 -25 -989 -25 -1230 1 -19 2 -73 7 -119 10 -47 4 -92 8 -102 10 -10 2 -46
6 -81 10 -35 3 -88 10 -118 15 -30 5 -71 12 -90 14 -44 6 -85 13 -185 32 -44
8 -91 18 -105 20 -14 3 -62 14 -107 24 -46 11 -93 22 -105 24 -13 3 -43 11
-68 18 -42 13 -45 16 -45 49 -1 18 2 43 6 54 4 11 9 38 13 60 30 202 174 608
302 850 114 217 186 332 304 490 90 121 119 154 230 265 243 243 477 379 732
424 67 12 255 14 304 3z m-2930 -1602 c117 -44 124 -169 12 -226 -56 -29 -148
-29 -205 -1 -47 25 -61 40 -73 82 -18 62 26 123 108 151 53 18 98 16 158 -6z
m5772 -22 c117 -88 41 -227 -124 -226 -180 1 -250 166 -104 244 64 33 171 25
228 -18z m-6586 -302 c68 -29 116 -98 105 -151 -12 -52 -64 -105 -122 -123
-69 -22 -161 -10 -216 29 -54 37 -71 81 -60 156 3 19 60 73 96 89 53 24 141
24 197 0z m7362 7 c42 -12 90 -48 108 -82 62 -114 -77 -235 -235 -205 -67 12
-128 55 -143 99 -13 41 -14 54 -3 86 28 89 154 136 273 102z m-6396 -504 c66
-32 105 -86 104 -143 -2 -109 -106 -183 -248 -177 -213 9 -296 208 -131 310
83 51 182 54 275 10z m5481 15 c75 -25 129 -84 132 -146 3 -57 -2 -73 -33
-108 -53 -61 -100 -80 -198 -79 -96 0 -148 20 -193 74 -127 151 75 330 292
259z m-4166 -238 c56 -18 120 -69 144 -114 33 -64 16 -141 -43 -201 -102 -101
-305 -104 -418 -5 -51 45 -70 92 -63 155 15 137 207 220 380 165z m2889 -18
c135 -73 158 -209 51 -303 -152 -134 -433 -71 -473 105 -20 90 48 179 170 222
21 7 67 11 118 8 67 -3 93 -10 134 -32z m-1464 -102 c43 -13 101 -49 130 -80
139 -151 -19 -360 -263 -347 -185 10 -311 142 -266 278 23 70 118 142 210 158
52 10 140 5 189 -9z"/>
<path d="M4198 7553 c-22 -5 -35 -50 -21 -72 6 -9 19 -17 31 -19 11 -2 25 -9
29 -15 5 -7 50 -105 99 -219 49 -114 91 -208 94 -208 3 0 22 16 43 36 l37 35
-44 62 c-205 283 -224 313 -210 332 23 31 -17 77 -58 68z"/>
<path d="M5759 7546 c-20 -10 -24 -19 -24 -56 -1 -41 -11 -59 -127 -220 l-126
-175 36 -37 c20 -21 39 -38 42 -38 3 0 30 57 60 128 102 242 139 315 155 309
8 -4 22 4 34 19 16 21 18 30 9 49 -14 31 -29 36 -59 21z"/>
<path d="M4475 6667 c-41 -13 -56 -27 -71 -64 -11 -24 -11 -38 -2 -64 40 -115
223 -165 418 -114 102 26 101 24 29 97 -125 127 -264 181 -374 145z"/>
<path d="M5365 6666 c-23 -6 -67 -26 -100 -45 -66 -38 -179 -144 -173 -164 14
-41 272 -65 361 -34 114 40 167 123 127 198 -25 46 -132 69 -215 45z"/>
<path d="M4948 6343 c-19 -21 -40 -53 -46 -71 -11 -32 -10 -33 11 -26 51 17
95 19 140 8 47 -12 48 -12 41 9 -14 44 -75 116 -99 117 -6 0 -27 -17 -47 -37z"/>
</g>
</svg>
