<?xml version="1.0" encoding="utf-8"?>
<!-- Generator: Adobe Illustrator 22.1.0, SVG Export Plug-In . SVG Version: 6.00 Build 0)  -->
<svg version="1.1" id="Camada_1" xmlns="http://www.w3.org/2000/svg" xmlns:xlink="http://www.w3.org/1999/xlink" x="0px" y="0px"
	 viewBox="0 0 1920 1080" style="enable-background:new 0 0 1920 1080;" xml:space="preserve">
<style type="text/css">
	.st0{fill:#E0D675;}
	.st1{fill:#222221;}
	.st2{fill:#585857;}
	.st3{fill:#C4DFE2;}
	.st4{fill:#C63465;}
	.st5{font-family:'ComicSansMS';}
	.st6{font-size:60px;}
</style>
<g>
	<g>
		<path class="st0" d="M990.6,208.5c-0.1,0.3-0.1,0.5-0.2,0.9c-0.3,65.2-0.3,130.4-0.8,195.5c-0.5,60.6-5.7,124.1-61.2,160.3
			c-50.9,33.2-123.4,32.3-178.4,10c-60.2-24.4-84.6-87.8-90.2-148.2c-6.7-72.2-1.9-146.2-2.2-218.7c26.8,2.8,55.5-1.2,82.4-2
			c28-0.9,56-1.3,84-1.4C879.6,204.7,935.1,206.4,990.6,208.5z"/>
		<path class="st1" d="M994.8,206.2c1.4,0.3,2.7,1.3,2.7,3.2c-0.2,43.5-0.7,86.9-1,130.4c-0.2,40,1.7,80.7-2.6,120.5
			c-6.1,56-34.1,101.7-87.3,123.7c-53,21.8-125.9,17.7-175.9-10.8c-49.4-28.2-70.5-85.5-76.6-139.2c-4.1-36.1-2.8-72.7-2.6-109.1
			c0.2-39.3,0.4-78.6,0.8-117.9c0-2.9,3.6-3.4,4.9-1.6c25.4-5.6,53.4-4.2,79.3-5c28-0.9,56-1.4,84-1.6c57.2-0.3,114.5,0.5,171.6,3.7
			C994.1,202.5,995,204.5,994.8,206.2z M990.5,209.4c0-0.3,0.1-0.6,0.2-0.9c-55.5-2.1-111-3.9-166.6-3.6c-28,0.1-56,0.6-84,1.4
			c-27,0.8-55.6,4.9-82.4,2c0.3,72.5-4.5,146.5,2.2,218.7c5.7,60.4,30.1,123.8,90.2,148.2c55,22.3,127.5,23.2,178.4-10
			c55.6-36.2,60.8-99.7,61.2-160.3C990.1,339.8,990.1,274.6,990.5,209.4z"/>
	</g>
	<path class="st1" d="M709.6,239.2c1.5,0.1,2.3,2.2,0.8,3c-2.8,1.5-5.5,3.2-8.2,5c0.8,3.3,1.7,6.5,2.5,9.8c0.3,1.3-1.4,2.6-2.4,1.4
		c-2-2.4-4.1-4.6-6.4-6.7c-2.3,1.8-4.6,3.6-6.9,5.6c-0.5,0.4-1.1,0.5-1.6,0.3c0,0.1-0.1,0.2-0.1,0.3c-0.4,1.2-2.2,0.7-1.9-0.5
		c0.8-4,1.7-8,2.9-11.9c-2-1.4-4-2.8-6-4.2c-1.3-0.9-0.8-3,0.8-3c2.5-0.1,5-0.1,7.6,0c1.3-3.5,2.7-6.9,4.3-10.2
		c0.5-1.1,2.2-0.8,2.5,0.3c0.9,3.4,1.7,6.8,2.6,10.1C703.2,238.7,706.4,238.9,709.6,239.2z"/>
	<path class="st1" d="M967.4,239.2c1.5,0.1,2.3,2.2,0.8,3c-2.8,1.5-5.5,3.2-8.2,5c0.8,3.3,1.7,6.5,2.5,9.8c0.3,1.3-1.4,2.6-2.4,1.4
		c-2-2.4-4.1-4.6-6.4-6.7c-2.3,1.8-4.6,3.6-6.9,5.6c-0.5,0.4-1.1,0.5-1.6,0.3c0,0.1-0.1,0.2-0.1,0.3c-0.4,1.2-2.2,0.7-1.9-0.5
		c0.8-4,1.7-8,2.9-11.9c-2-1.4-4-2.8-6-4.2c-1.3-0.9-0.8-3,0.8-3c2.5-0.1,5-0.1,7.6,0c1.3-3.5,2.7-6.9,4.3-10.2
		c0.5-1.1,2.2-0.8,2.5,0.3c0.9,3.4,1.7,6.8,2.6,10.1C961,238.7,964.2,238.9,967.4,239.2z"/>
	<g>
		<path class="st2" d="M871.2,435.8c0.9-1.1,1.9-2.3,2.7-3.5c-1.8,9.6-6.1,13.3-13,10.8c-3.3-0.4-6.6-1.1-9.7-2.3
			c-5-1.5-10-3.5-14.8-5.6c-9.2-4.1-18-9.1-26.2-15c-8.8-6.3-16.9-13.4-24.1-21.4c-4.2-4.6-8.1-9.4-11.7-14.4
			c-1.6-2.3-17.7-30-1.4-25.4c-0.5,1-1,2-1.4,3.1c-0.3,0.6-0.3,1.1-0.2,1.7c-0.3,0.5-0.5,1.1-0.3,1.9c12.3,39.4,54.3,68.9,94.9,71.3
			c0.5,0,0.9,0,1.3-0.2C868.5,437.5,870,437.4,871.2,435.8z"/>
		<path class="st3" d="M864.2,316.6c21.7,6.8,34.7,26,33.8,48.7c-1,24.9-17.9,46.2-32.5,64.9c0,0,0,0.1-0.1,0.1
			c-41.2-7.3-68.6-29.2-89.2-65.2c0,0,0.1-0.1,0.1-0.1C794.1,333.7,825.5,304.3,864.2,316.6z M869,330.5c2,1.1,3.6-1.7,1.7-3
			c-17.3-12-45.5-10.6-59.6,5.7c-1.2,1.4,0.4,4,2.1,2.7C830.6,322.7,849.5,319.4,869,330.5z"/>
		<path class="st4" d="M884.6,418c11.6,10,22.8,25.1,22.7,41.2c-0.1,25.3-27.4,22.2-44.6,20.6c-28.8-2.6-57-12.5-81.2-28.4
			c-22.9-15.1-49.2-39.1-63.3-63c-9.3-15.8-13.1-38.6,5.4-49.8c17.8-10.8,40.1,0.1,56.7,7.8c-2,2.9-3.8,6-5.4,9c0,0-0.1,0-0.1-0.1
			c-12.3-5.7-16.5,7.6-13.1,17.3c6.6,19.6,27.8,38.7,43.8,50.5c14.8,11,44.9,30.3,64.6,26.1c10.8-2.3,16.6-13.7,8.4-22.3
			c-0.1-0.1-0.2-0.1-0.3-0.2C880.3,424,882.5,421,884.6,418z M895.3,473.3c4-2.4,5.9-7.7,3.1-11.7c-2.3-3.4-6.9-4.6-10.6-3
			c-0.5-0.3-1.2-0.3-1.9,0.1c-4,2.1-4.4,8.1-2.4,11.8C885.9,474.7,891.2,475.8,895.3,473.3z M880.5,451c1.7-2-1.1-4.9-2.9-2.9
			c-4.8,5-11.1,7.4-18,5.7c-1.7-0.4-2.4,2.1-0.7,2.6C866.4,459,875.2,457.1,880.5,451z M832.2,461.9c1.1-3.6-0.4-8.9-4.4-10.1
			c-0.6-0.2-1.1-0.1-1.6,0.2c-4-1.9-8.7,1.6-9.8,5.5c-1.2,4.4,1.9,8.5,6.1,9.6C826.7,468.2,830.9,466.1,832.2,461.9z M753.3,413.8
			c4.9-0.7,9.2-4.7,8.7-10c-0.5-4.7-5.2-9.4-10.1-8.7c-0.2-0.2-0.5-0.3-0.9-0.3c-3.5,0-5.9,0.1-7.7,3.4c-1.2,2.2-1.6,5-1.1,7.5
			C743.2,411,747.9,414.4,753.3,413.8z M739,357.4c4.3-4.8,3.8-12.9-2.3-16c-2.9-1.4-6.4-1-8.4,1.5c-0.9,1-1.4,2.4-1.5,3.7
			c-2.9,2.3-3.4,6.5-1.4,10.1C728.3,361.9,735.2,361.7,739,357.4z"/>
		<path class="st1" d="M876.3,313.3c19.9,10.1,30.8,29.7,29.7,52c-0.9,17.2-8,32.4-17.1,46.5c0.4,0.1,0.8,0.4,1.1,0.7
			c18.4,16,44.2,66.9,5,74.5c-40.7,7.9-89.3-9.6-122.2-32.8c-20.1-14.3-38.3-32.9-53.6-52.2c-9.7-12.3-17.4-26.5-15.9-42.5
			c4-44,54.4-31.7,80.2-17.6C805,313.2,841.3,295.6,876.3,313.3z M907.3,459.2c0.1-16.1-11.1-31.2-22.7-41.2c-2.1,3-4.3,6-6.5,8.8
			c0.1,0.1,0.2,0.1,0.3,0.2c8.2,8.6,2.4,19.9-8.4,22.3c-19.7,4.2-49.8-15.1-64.6-26.1c-16-11.8-37.2-31-43.8-50.5
			c-3.3-9.8,0.8-23,13.1-17.3c0,0,0.1,0.1,0.1,0.1c1.7-3.1,3.5-6.1,5.4-9c-16.6-7.8-38.8-18.6-56.7-7.8c-18.5,11.2-14.6,34-5.4,49.8
			c14.1,24,40.4,47.9,63.3,63c24.2,15.9,52.3,25.8,81.2,28.4C879.9,481.4,907.2,484.5,907.3,459.2z M898.1,365.3
			c0.9-22.7-12.1-41.9-33.8-48.7c-38.7-12.3-70.1,17.1-87.8,48.4c0,0.1-0.1,0.1-0.1,0.1c20.5,36,48,58,89.2,65.2c0,0,0-0.1,0.1-0.1
			C880.2,411.5,897.1,390.2,898.1,365.3z M873.9,432.4c-0.9,1.2-1.8,2.3-2.7,3.5c-1.1,1.5-2.7,1.7-4,1.1c-0.4,0.1-0.8,0.2-1.3,0.2
			c-40.5-2.4-82.6-32-94.9-71.3c-0.2-0.8,0-1.4,0.3-1.9c-0.1-0.6-0.1-1.1,0.2-1.7c0.5-1,1-2.1,1.4-3.1c-16.2-4.6-0.2,23.1,1.4,25.4
			c3.6,5.1,7.5,9.9,11.7,14.4c7.3,8,15.4,15.1,24.1,21.4c8.2,5.9,17,10.9,26.2,15c4.8,2.1,9.8,4.1,14.8,5.6c3.1,1.2,6.3,1.9,9.7,2.3
			C867.8,445.6,872.1,442,873.9,432.4z"/>
		<path class="st1" d="M898.4,461.6c2.8,4.1,0.9,9.3-3.1,11.7c-4.1,2.4-9.4,1.4-11.8-2.9c-2-3.6-1.7-9.6,2.4-11.8
			c0.7-0.4,1.4-0.3,1.9-0.1C891.5,456.9,896.1,458.2,898.4,461.6z M893.1,469.6c5.4-3.1,0.7-9.8-4.2-8.7c-0.1,0.4-0.2,0.7-0.5,1.1
			c-1.5,1.9-2.3,3.9-1.1,6.3C888.5,470.5,891.1,470.8,893.1,469.6z"/>
		<path class="st1" d="M877.6,448.1c1.9-1.9,4.6,0.9,2.9,2.9c-5.4,6.1-14.1,8-21.7,5.4c-1.6-0.6-1-3,0.7-2.6
			C866.5,455.5,872.8,453.1,877.6,448.1z"/>
		<path class="st1" d="M870.7,327.5c1.8,1.3,0.2,4.1-1.7,3c-19.5-11.1-38.4-7.8-55.8,5.4c-1.7,1.3-3.3-1.3-2.1-2.7
			C825.2,316.9,853.4,315.5,870.7,327.5z"/>
		<path class="st1" d="M827.8,451.9c4,1.2,5.5,6.4,4.4,10.1c-1.3,4.2-5.6,6.3-9.7,5.2c-4.2-1.1-7.4-5.2-6.1-9.6
			c1.1-3.9,5.8-7.4,9.8-5.5C826.7,451.8,827.2,451.7,827.8,451.9z M827.7,460c0.3-2-0.7-3.1-2.1-4.4c-0.1-0.1-0.2-0.3-0.3-0.4
			c-1.9,0.5-3.9,1.6-4.2,3.7c-0.2,1.8,1.3,3.2,3,3.5C825.9,462.7,827.4,461.8,827.7,460z"/>
		<path class="st1" d="M761.9,403.8c0.6,5.2-3.7,9.3-8.7,10c-5.4,0.7-10.1-2.8-11.2-8.1c-0.5-2.5-0.1-5.3,1.1-7.5
			c1.8-3.3,4.2-3.4,7.7-3.4c0.4,0,0.7,0.1,0.9,0.3C756.7,394.4,761.5,399.1,761.9,403.8z M752.9,409c2.5-0.4,4.8-2.5,4.2-5.2
			c-0.7-2.9-3.2-4.1-5.9-3.9c-1.2,0.1-1.9-0.7-2.1-1.6c-0.4,0.1-0.8,0.3-1.2,0.4C745.4,402.9,746.6,410.1,752.9,409z"/>
		<path class="st1" d="M736.7,341.4c6.1,3.1,6.6,11.2,2.3,16c-3.8,4.3-10.7,4.5-13.7-0.8c-2-3.6-1.4-7.8,1.4-10.1
			c0.1-1.3,0.7-2.7,1.5-3.7C730.3,340.3,733.8,340,736.7,341.4z M733.4,355.8c2.6-0.9,4.2-4.2,3.8-6.8c-0.3-1.8-1.9-3.7-3.8-3.7
			c-1.6,0-2.5,1.4-1.8,2.9c1,2.1-1.4,4.1-3.2,2.5c-0.1-0.1-0.2-0.2-0.3-0.3C728.1,353.5,730.2,356.9,733.4,355.8z"/>
	</g>
	<text transform="matrix(1 0 0 1 725.5098 286.5938)" class="st5 st6">ALIEN</text>
	<text transform="matrix(1 0 0 1 724.873 551.8828)" class="st5 st6">CODES</text>
</g>
</svg>
